<?xml version="1.0" standalone="no"?>
<!DOCTYPE svg PUBLIC "-//W3C//DTD SVG 20010904//EN"
 "http://www.w3.org/TR/2001/REC-SVG-20010904/DTD/svg10.dtd">
<svg version="1.0" xmlns="http://www.w3.org/2000/svg"
 width="140.000000pt" height="136.000000pt" viewBox="0 0 140.000000 136.000000"
 preserveAspectRatio="xMidYMid meet">

<g transform="translate(0.000000,136.000000) scale(0.100000,-0.100000)"
fill="#000000" stroke="none">
<path d="M115 1333 c8 -15 12 -30 9 -35 -3 -4 0 -8 6 -8 21 0 99 -99 104 -133
1 -6 20 -37 42 -67 53 -71 67 -98 58 -112 -4 -6 -3 -8 3 -5 6 4 10 -6 9 -24
l-1 -30 -28 33 -27 33 21 -57 c19 -51 20 -59 7 -86 -14 -27 -13 -30 3 -41 16
-9 21 -6 33 24 9 20 18 51 22 70 3 19 12 35 19 35 6 0 17 11 23 24 8 18 7 28
-4 44 l-15 21 171 -6 c159 -6 402 8 453 26 17 6 17 8 -3 30 -11 13 -20 27 -20
32 0 4 -13 11 -28 17 -16 5 -36 17 -45 27 -9 9 -17 12 -17 7 0 -19 -44 -5 -52
17 -4 12 -4 20 0 17 4 -2 13 -1 20 3 9 5 7 13 -7 28 -11 11 -18 23 -15 25 2 3
-2 5 -8 6 -7 1 -29 5 -48 10 -34 10 -34 10 18 11 80 2 289 -19 360 -35 129
-29 202 -76 202 -129 0 -12 -6 -28 -14 -34 -15 -13 -48 -76 -53 -101 -1 -8 -4
-25 -5 -37 -1 -13 -5 -23 -8 -23 -3 0 -11 -26 -17 -57 -7 -32 -17 -83 -23
-113 -6 -30 -15 -75 -20 -100 -13 -68 -31 -111 -60 -150 -15 -19 -41 -55 -58
-80 -88 -126 -112 -164 -112 -179 0 -9 -16 -40 -35 -68 -31 -46 -42 -55 -93
-70 -72 -22 -329 -26 -354 -5 -9 7 -29 41 -46 76 -17 36 -66 104 -116 162 -83
95 -175 233 -232 350 -29 60 -68 94 -108 94 -26 0 -26 0 -26 -84 0 -65 3 -85
15 -90 8 -3 15 -10 15 -16 0 -5 10 -21 22 -35 23 -27 36 -111 15 -98 -9 5 -9
3 0 -8 7 -9 8 -20 3 -28 -4 -8 -6 -20 -3 -28 3 -7 -1 -13 -10 -13 -8 0 -21 -8
-28 -17 -10 -11 -10 -14 -2 -9 7 4 13 2 13 -3 0 -6 12 -11 28 -11 21 -1 33
-10 54 -46 16 -25 28 -50 28 -56 0 -5 6 -8 14 -5 8 3 13 -1 12 -11 0 -9 5 -16
12 -14 8 1 11 -2 8 -7 -4 -5 0 -12 6 -14 10 -4 9 -6 -1 -6 -10 -1 -11 -4 -2
-15 6 -8 13 -28 14 -45 2 -28 3 -29 14 -14 7 9 13 12 13 6 0 -5 -20 -32 -45
-58 l-44 -48 97 6 c59 4 123 15 162 28 55 19 98 23 275 29 116 4 239 12 275
18 55 10 127 20 330 47 19 3 52 8 73 11 l37 6 0 609 0 609 -481 0 c-317 0
-478 -3 -474 -10 3 -5 13 -10 21 -10 8 0 14 -4 14 -9 0 -14 -29 -41 -43 -41
-23 0 -113 27 -161 48 -33 15 -69 22 -112 22 l-63 0 14 -27z m-65 -668 c5 -3
10 -11 10 -16 0 -6 -11 3 -25 19 -14 17 -25 38 -24 48 0 13 5 9 15 -13 7 -17
18 -34 24 -38z"/>
<path d="M1065 481 c-6 -11 9 -23 19 -14 9 9 7 23 -3 23 -6 0 -12 -4 -16 -9z"/>
</g>
</svg>
