<?xml version="1.0" standalone="no"?>
<!DOCTYPE svg PUBLIC "-//W3C//DTD SVG 20010904//EN"
 "http://www.w3.org/TR/2001/REC-SVG-20010904/DTD/svg10.dtd">
<svg version="1.0" xmlns="http://www.w3.org/2000/svg"
 width="110.000000pt" height="100.000000pt" viewBox="0 0 110.000000 100.000000"
 preserveAspectRatio="xMidYMid meet">

<g transform="translate(0.000000,100.000000) scale(0.100000,-0.100000)"
fill="#000000" stroke="none">
<path d="M3 950 c1 -34 5 -50 14 -50 7 0 13 -4 13 -10 0 -5 -7 -10 -15 -10
-13 0 -15 -35 -15 -255 0 -215 2 -255 14 -255 8 0 18 -5 22 -12 5 -8 0 -9 -14
-6 -22 6 -22 5 -22 -139 0 -128 2 -144 15 -133 21 17 21 -6 0 -26 -8 -9 -15
-24 -15 -35 0 -19 13 -19 550 -19 l550 1 0 144 c0 122 -2 145 -15 145 -8 0
-15 4 -15 10 0 5 7 7 15 4 12 -5 15 3 15 40 0 45 -1 46 -57 78 -67 38 -133
100 -133 125 1 16 2 15 12 -2 14 -27 55 -65 61 -59 3 3 17 -5 32 -18 14 -13
40 -26 56 -29 26 -6 29 -4 29 18 0 13 -5 34 -11 45 -8 15 -8 19 0 14 8 -5 11
62 11 239 l0 246 -97 -3 c-96 -3 -98 -4 -101 -28 -2 -14 -7 -28 -11 -32 -4 -5
-5 7 -3 26 l4 34 -174 0 c-103 0 -178 -4 -185 -10 -9 -7 -13 -7 -13 1 0 6 -4
11 -10 11 -5 0 -10 -12 -10 -26 0 -19 -4 -25 -17 -22 -12 3 -17 12 -16 26 l3
22 -234 0 -234 -1 1 -49z m781 15 c10 -16 14 -34 10 -50 l-6 -25 -18 32 c-10
18 -14 34 -9 36 4 2 5 10 2 18 -8 22 3 16 21 -11z m-319 -35 c11 -5 14 -9 8
-9 -7 -1 -13 -5 -13 -11 0 -5 10 -9 23 -7 19 2 22 -2 20 -31 -1 -40 -2 -40
-39 -48 -19 -3 -36 0 -49 10 -19 15 -19 16 8 6 38 -13 39 -13 27 9 -5 11 -10
30 -10 43 0 13 -5 29 -12 36 -15 15 5 16 37 2z m404 -8 c13 -24 -4 -42 -36
-42 -28 0 -29 9 -5 38 21 27 28 27 41 4z m-769 -42 c-6 -11 -16 -20 -23 -20
-7 0 -6 4 3 10 8 5 11 10 7 10 -12 0 2 20 14 20 6 0 6 -8 -1 -20z m500 -11 c0
-6 -4 -7 -10 -4 -5 3 -10 11 -10 16 0 6 5 7 10 4 6 -3 10 -11 10 -16z m107 -1
c-3 -8 -6 -5 -6 6 -1 11 2 17 5 13 3 -3 4 -12 1 -19z m-357 -93 c-7 -8 -17
-15 -23 -15 -6 0 -2 7 9 15 25 19 30 19 14 0z m-60 -29 c0 -2 -8 -10 -17 -17
-16 -13 -17 -12 -4 4 13 16 21 21 21 13z m-53 -42 c-3 -3 -12 -4 -19 -1 -8 3
-5 6 6 6 11 1 17 -2 13 -5z m-122 -24 c-27 -12 -35 -12 -35 0 0 6 12 10 28 9
24 0 25 -1 7 -9z m400 -10 c45 -12 76 -35 95 -69 10 -19 10 -25 -1 -32 -8 -5
-15 -4 -17 1 -2 6 -12 10 -22 10 -10 0 -33 17 -51 38 -18 20 -44 45 -58 55
-28 20 -29 20 54 -3z m375 5 c-7 -8 -17 -15 -23 -15 -6 0 -2 7 9 15 25 19 30
19 14 0z m90 -5 l25 -8 -28 -1 c-16 -1 -26 -5 -22 -10 3 -5 1 -12 -5 -16 -5
-3 -10 3 -10 14 0 10 -6 22 -12 24 -21 9 25 6 52 -3z m-20 -60 c0 -5 -4 -10
-10 -10 -5 0 -10 5 -10 10 0 6 5 10 10 10 6 0 10 -4 10 -10z m-645 -140 c-3
-5 -11 -10 -16 -10 -6 0 -7 5 -4 10 3 6 11 10 16 10 6 0 7 -4 4 -10z m622 4
c-3 -3 -12 -4 -19 -1 -8 3 -5 6 6 6 11 1 17 -2 13 -5z m-136 -41 c12 -15 12
-16 -3 -10 -12 4 -26 -5 -47 -31 -23 -28 -30 -32 -31 -19 0 28 19 57 43 67 12
5 23 9 23 9 1 1 8 -7 15 -16z m-654 -13 c-2 -24 -4 -25 -25 -3 -16 16 -16 16
1 10 9 -3 17 -2 17 3 0 6 2 10 4 10 3 0 4 -9 3 -20z m350 -18 c-1 -9 -10 -28
-19 -41 -10 -13 -15 -27 -13 -31 2 -3 -5 -11 -16 -18 -16 -10 -19 -9 -19 7 0
11 11 28 24 38 13 10 26 29 30 41 9 26 17 29 13 4z m463 -33 c0 -17 -4 -28
-10 -24 -5 3 -10 17 -10 31 0 13 5 24 10 24 6 0 10 -14 10 -31z m-763 -24 c15
-13 23 -25 16 -25 -6 0 -18 7 -26 15 -8 8 -31 15 -50 17 -42 2 -41 13 2 16 20
1 39 -6 58 -23z m668 15 c-3 -5 1 -10 9 -10 13 0 11 -11 -11 -61 -25 -58 -26
-65 -15 -127 6 -37 10 -67 9 -68 -11 -7 -74 24 -100 49 -28 29 -37 32 -62 25
-17 -4 -44 -9 -60 -11 -17 -2 -36 -7 -43 -11 -16 -10 -15 -1 3 33 8 16 28 34
46 40 26 9 39 7 84 -14 63 -30 85 -52 66 -65 -11 -6 -9 -10 7 -19 45 -24 52
-15 32 42 -19 55 -17 97 8 144 7 12 12 31 12 42 0 12 5 21 11 21 5 0 7 -4 4
-10z m81 -57 c10 -23 13 -49 9 -70 -8 -45 -44 -127 -52 -120 -3 4 0 13 6 21
15 18 28 156 14 156 -5 0 -14 -5 -21 -12 -9 -9 -12 -5 -12 18 0 57 34 61 56 7z
m-561 -192 c3 -10 2 -29 -3 -42 -5 -13 -7 -31 -4 -39 4 -13 3 -13 -11 -2 -12
10 -21 11 -36 2 -28 -14 -27 4 0 22 19 12 20 17 9 37 -8 15 -8 21 -1 17 6 -4
14 0 17 8 8 21 21 20 29 -3z m210 -49 c-3 -3 -11 0 -18 7 -9 10 -8 11 6 5 10
-3 15 -9 12 -12z"/>
</g>
</svg>
